<?xml version="1.0" encoding="utf-8"?>
<!-- Generator: Adobe Illustrator 23.0.3, SVG Export Plug-In . SVG Version: 6.00 Build 0)  -->
<svg version="1.1" id="Layer_1" xmlns="http://www.w3.org/2000/svg" xmlns:xlink="http://www.w3.org/1999/xlink" x="0px" y="0px"
	 viewBox="0 0 2500 2500" style="enable-background:new 0 0 2500 2500;" xml:space="preserve">
<style type="text/css">
	.st0{fill:#FA0D0A;}
</style>
<g>
	<g>
		<path d="M166.87,931.76h136.96c43.26,0,76.03,3.38,98.32,10.14c22.28,6.76,40.27,20.45,53.97,41.06
			c13.7,20.62,20.54,53.82,20.54,99.63c0,30.98-4.84,52.57-14.51,64.79c-9.68,12.22-28.75,21.59-57.23,28.14
			c31.74,7.21,53.26,19.16,64.57,35.87c11.3,16.71,16.96,42.32,16.96,76.82v49.14c0,35.82-4.08,62.35-12.23,79.61
			c-8.15,17.26-21.15,29.05-38.97,35.38c-17.83,6.33-54.35,9.5-109.57,9.5H166.87V931.76z M304.16,1022.45v117.87
			c5.87-0.21,10.44-0.33,13.7-0.33c13.48,0,22.06-3.32,25.76-9.99c3.69-6.66,5.54-25.7,5.54-57.13c0-16.58-1.52-28.21-4.57-34.87
			c-3.05-6.66-7.01-10.86-11.9-12.61C327.8,1023.66,318.29,1022.68,304.16,1022.45z M304.16,1222.83v148.31
			c19.35-0.65,31.68-3.71,37.01-9.17c5.32-5.45,7.99-18.88,7.99-40.27v-49.44c0-22.7-2.4-36.45-7.17-41.25
			C337.2,1226.21,324.59,1223.48,304.16,1222.83z"/>
		<path d="M657.11,932.72v423.23h83.79v105.89H519.32V932.72H657.11z"/>
		<path d="M1059.07,1242.62c0,53.7-1.25,91.73-3.74,114.06c-2.49,22.34-10.29,42.75-23.39,61.24
			c-13.11,18.49-30.81,32.68-53.12,42.59c-22.31,9.9-48.3,14.86-77.98,14.86c-28.16,0-53.45-4.68-75.86-14.03
			c-22.42-9.35-40.45-23.38-54.1-42.09c-13.65-18.7-21.77-39.07-24.37-61.08c-2.6-22.01-3.9-60.52-3.9-115.55v-91.45
			c0-53.7,1.24-91.72,3.74-114.06c2.49-22.34,10.29-42.75,23.39-61.24c13.1-18.49,30.81-32.68,53.12-42.59
			c22.31-9.9,48.3-14.86,77.98-14.86c28.15,0,53.45,4.68,75.86,14.03c22.42,9.36,40.45,23.39,54.1,42.09
			c13.65,18.71,21.77,39.07,24.37,61.08c2.6,22.01,3.9,60.53,3.9,115.55V1242.62z M922.28,1066.99c0-24.87-1.36-40.77-4.06-47.71
			c-2.71-6.93-8.29-10.4-16.73-10.4c-7.15,0-12.62,2.81-16.41,8.42c-3.79,5.61-5.69,22.18-5.69,49.69v249.59
			c0,31.03,1.24,50.18,3.74,57.45c2.49,7.26,8.28,10.89,17.38,10.89c9.31,0,15.27-4.18,17.87-12.55c2.6-8.36,3.9-28.28,3.9-59.76
			V1066.99z"/>
		<path d="M1410.4,1242.62c0,53.7-1.25,91.73-3.74,114.06c-2.49,22.34-10.29,42.75-23.39,61.24
			c-13.11,18.49-30.81,32.68-53.12,42.59c-22.31,9.9-48.3,14.86-77.98,14.86c-28.16,0-53.45-4.68-75.86-14.03
			c-22.42-9.35-40.45-23.38-54.1-42.09c-13.65-18.7-21.77-39.07-24.37-61.08c-2.6-22.01-3.9-60.52-3.9-115.55v-91.45
			c0-53.7,1.24-91.72,3.74-114.06c2.49-22.34,10.29-42.75,23.39-61.24c13.1-18.49,30.81-32.68,53.12-42.59
			c22.31-9.9,48.3-14.86,77.98-14.86c28.15,0,53.45,4.68,75.86,14.03c22.42,9.36,40.45,23.39,54.1,42.09
			c13.65,18.71,21.77,39.07,24.37,61.08c2.6,22.01,3.9,60.53,3.9,115.55V1242.62z M1273.61,1066.99c0-24.87-1.36-40.77-4.06-47.71
			c-2.71-6.93-8.29-10.4-16.73-10.4c-7.15,0-12.62,2.81-16.41,8.42c-3.79,5.61-5.69,22.18-5.69,49.69v249.59
			c0,31.03,1.24,50.18,3.74,57.45c2.49,7.26,8.28,10.89,17.38,10.89c9.31,0,15.27-4.18,17.87-12.55c2.6-8.36,3.9-28.28,3.9-59.76
			V1066.99z"/>
		<path d="M1871.37,932.15v526.01h-120.52l-0.16-355.11l-47.98,355.11h-85.48l-50.6-346.99l-0.16,346.99h-120.52V932.15h178.41
			c5.29,31.63,10.75,68.9,16.37,111.82l19.58,133.8l31.69-245.62H1871.37z"/>
		<path d="M2140.69,932.15v105.97l-102.65,317.57h102.65v105.97h-254.07v-76.86l106.08-346.68h-93.64V932.15H2140.69z"/>
		<path d="M2389.35,932.15v105.97l-102.66,317.57h102.66v105.97h-254.07v-76.86l106.08-346.68h-93.64V932.15H2389.35z"/>
	</g>
	<path class="st0" d="M118.06,1548.01c0,7.7,4.22,14.73,12.67,21.11c8.45,6.38,17.81,9.57,28.08,9.57c9.06,0,18.52-2.33,28.39-6.99
		c9.87-4.66,19.54-11.44,29-20.35c11.8-10.94,27.57-32.05,47.31-63.33c5.09-8.3,9.06-14.58,11.91-18.83
		c18.01-28.35,33.78-48.3,47.31-59.84c13.53-11.54,28.79-19.14,45.79-22.78c-8.45,0-17.25-0.1-26.4-0.3c-2.14,0-3.46,0-3.97,0
		c-44.06,0-75.68,1.29-94.86,3.87c-19.18,2.58-35.49,6.96-48.92,13.14c-15.26,6.99-27.04,15.11-35.33,24.38
		c-8.29,9.27-12.44,18.96-12.44,29.09c0,10.53,4.63,19.19,13.89,25.97c9.26,6.79,21.06,10.18,35.41,10.18
		c20.15,0,36.81-5.9,49.99-17.69c13.18-11.79,19.77-26.86,19.77-45.18v-4.25h2.44c0,0.61,0.05,1.47,0.15,2.58
		c0.1,1.12,0.15,1.88,0.15,2.28c0,19.95-7.12,36.3-21.37,49.06c-14.25,12.76-32.41,19.14-54.49,19.14
		c-14.96,0-26.94-3.67-35.94-11.01c-9.01-7.34-13.51-17.03-13.51-29.09c0-12.15,5.27-24.43,15.8-36.83
		c10.53-12.4,24.34-22.35,41.44-29.84c17.5-7.59,37.57-13.16,60.21-16.71c22.64-3.54,50.6-5.32,83.87-5.32
		c9.67,0,20.45,0.36,32.36,1.06c11.91,0.71,18.93,1.06,21.06,1.06c2.14,0,5.29-0.2,9.46-0.61c4.17-0.4,7.38-0.61,9.62-0.61
		c3.25,0,5.75,0.58,7.48,1.75c1.73,1.17,2.6,2.86,2.6,5.09c0,3.24-2.77,5.72-8.32,7.44c-5.55,1.72-13.41,2.58-23.58,2.58
		c-1.43,0-3.16-0.05-5.19-0.15c-2.04-0.1-3.36-0.15-3.97-0.15c-14.86,0-27.91,4.23-39.15,12.68c-11.24,8.46-24.45,24.43-39.61,47.92
		c-3.66,5.77-8.95,14.38-15.87,25.82c-18.83,31.09-34.34,52.96-46.55,65.61c-13.23,13.77-27.17,24.23-41.82,31.36
		c-14.65,7.14-29.46,10.71-44.41,10.71c-15.26,0-27.95-3.72-38.08-11.16c-10.12-7.44-15.19-16.27-15.19-26.5
		c0-5.06,1.4-9.24,4.2-12.53c2.8-3.29,6.44-4.94,10.91-4.94c3.36,0,6.18,1.16,8.47,3.49c2.29,2.33,3.43,5.22,3.43,8.66
		c0,2.94-1.02,5.29-3.05,7.06c-2.03,1.77-4.68,2.66-7.94,2.66c-0.2-0.2-0.51-0.3-0.92-0.3H118.06z"/>
	<path class="st0" d="M429.9,1366.79l-81.1,120.14c-0.5,0.81-3.81,5.31-9.93,13.49c-6.12,8.18-11.94,15.98-17.45,23.4l1.5,0.61
		c13.94-19.31,26.96-33.72,39.04-43.22c12.09-9.5,23.45-14.25,34.08-14.25c5.32,0,9.75,1.52,13.32,4.57
		c3.56,3.05,5.34,6.86,5.34,11.43c0,6.81-5.62,17.84-16.85,33.08c-4.51,6.2-8.03,11.08-10.53,14.64
		c-8.12,11.79-13.44,20.07-15.95,24.85c-2.51,4.78-3.76,8.69-3.76,11.74c0,2.24,0.7,3.94,2.11,5.11c1.41,1.17,3.46,1.75,6.17,1.75
		c8.63,0,20.99-7.32,37.09-21.95c16.1-14.64,33.03-34.3,50.78-59l2.11,1.52c-19.06,26.73-36.64,47.26-52.74,61.59
		s-29.52,21.5-40.25,21.5c-5.62,0-10.05-1.65-13.32-4.96c-3.26-3.3-4.89-7.8-4.89-13.49c0-8.54,8.83-24.8,26.48-48.79l1.96-2.74
		c6.42-8.84,10.93-15.52,13.54-20.05c2.61-4.52,3.91-7.9,3.91-10.14c0-1.93-0.73-3.61-2.18-5.03c-1.46-1.42-3.19-2.13-5.19-2.13
		c-12.54,0-28.04,9.61-46.49,28.82c-18.45,19.21-35.71,44.37-51.76,75.47l-21.97,1.52l134.36-209.18L429.9,1366.79z"/>
	<path class="st0" d="M480.49,1471.09c-4.1,6.1-9.84,14.57-17.22,25.43c-28.8,42.79-43.2,67.13-43.2,73.02
		c0,1.55,0.61,2.95,1.85,4.19c1.23,1.24,2.72,1.86,4.46,1.86c8.61,0,21.47-7.57,38.59-22.71c17.12-15.14,34.33-34.8,51.66-58.99
		l2.61,1.71c-20.7,26.98-39.28,47.67-55.73,62.09c-16.45,14.42-29.8,21.63-40.05,21.63c-4.71,0-8.61-1.63-11.68-4.88
		c-3.08-3.26-4.61-7.42-4.61-12.48c0-3.41,1.13-7.96,3.38-13.64c2.26-5.68,5.33-11.42,9.22-17.21l38.74-58.45L480.49,1471.09z"/>
	<path class="st0" d="M627.98,1494.25l1.8,1.5c-19.5,27.3-36.93,47.79-52.28,61.49c-15.35,13.7-28.53,20.55-39.53,20.55
		c-5,0-9.08-1.66-12.23-4.97c-3.15-3.31-4.73-7.73-4.73-13.25c0-8.23,7.7-22.98,23.1-44.26c1.7-2.51,3-4.36,3.9-5.57
		c8.1-11.34,13.15-18.84,15.15-22.5c2-3.66,3-6.45,3-8.35c0-1.9-0.73-3.56-2.18-4.97c-1.45-1.4-3.18-2.11-5.18-2.11
		c-12.3,0-27.45,9.48-45.46,28.45c-18,18.97-34.9,43.8-50.71,74.51l-21.45,1.51l64.81-103.56l20.55-1.2l-37.81,52.99l1.2,0.6
		c13.8-19.17,26.6-33.42,38.41-42.75c11.8-9.33,22.9-14,33.3-14c5.2,0,9.55,1.53,13.05,4.59c3.5,3.06,5.25,6.8,5.25,11.21
		c0,6.62-5.3,17.21-15.9,31.76c-4.6,6.42-8.2,11.54-10.8,15.35c-8.4,12.64-13.73,21.15-15.98,25.51c-2.25,4.36-3.37,7.9-3.37,10.61
		c0,2.21,0.73,3.89,2.18,5.04c1.45,1.15,3.53,1.73,6.23,1.73c8.4,0,20.45-7.25,36.16-21.75
		C594.17,1537.93,610.67,1518.54,627.98,1494.25z"/>
	<path class="st0" d="M711.18,1366.79l-65.11,100.77c-11.39,17.78-22.78,34.04-34.18,48.76c-0.59,0.89-0.98,1.43-1.18,1.63
		l0.88,0.59c16.11-18.57,29.22-31.51,39.33-38.83c10.11-7.31,19.64-10.97,28.58-10.97c5.6,0,9.82,1.24,12.67,3.71
		c2.85,2.47,4.27,6.22,4.27,11.26c0,8.2-4.27,15.41-12.82,21.64c-8.54,6.22-20.08,10.32-34.62,12.3c4.42,1.38,7.69,3.36,9.8,5.93
		c2.11,2.57,3.17,5.73,3.17,9.48c0,4.54-1.5,10.67-4.49,18.38c-2.99,7.71-4.49,13.04-4.49,16.01c0,2.27,0.57,3.9,1.69,4.89
		c1.13,0.99,2.97,1.48,5.52,1.48c8.35,0,20.77-7.41,37.27-22.23c16.5-14.82,33.14-34.13,49.94-57.94l2.06,1.19
		c-17.48,25.39-34.84,45.55-52.07,60.46c-17.23,14.92-31.35,22.38-42.35,22.38c-5.69,0-10.29-1.53-13.77-4.59
		c-3.48-3.06-5.23-7.16-5.23-12.3c0-2.07,0.44-4.35,1.33-6.82c0.88-2.47,2.85-6.57,5.89-12.3c2.36-4.25,4.12-7.93,5.3-11.04
		c1.18-3.11,1.77-5.71,1.77-7.78c0-0.89-0.24-1.6-0.74-2.15c-0.49-0.54-1.37-1.16-2.65-1.85c-2.26,0.4-5.52,1.01-9.8,1.85
		c-4.27,0.84-7.05,1.26-8.32,1.26c-1.18,0-2.28-0.27-3.31-0.81c-1.03-0.54-1.55-1.01-1.55-1.41c0-0.99,1.06-1.88,3.17-2.67
		c2.11-0.79,4.79-1.19,8.03-1.19c0.2,0,1.55,0.07,4.05,0.22c2.5,0.15,4.98,0.27,7.44,0.37c9.72-1.78,17.53-5.53,23.42-11.26
		c5.89-5.73,8.84-12.4,8.84-20.01c0-3.56-0.76-6.17-2.28-7.85c-1.52-1.68-3.86-2.52-7-2.52c-9.33,0-22.91,9.44-40.73,28.31
		c-17.82,18.87-34.05,42.34-48.68,70.39l-18.71,1.19L691,1367.97L711.18,1366.79z"/>
	<path class="st0" d="M1033.93,1382.81c-0.91-0.1-2.33-0.15-4.26-0.15c-18.15-0.61-34.28-0.92-48.37-0.92
		c-29.91,0-54.35,1.37-73.31,4.12c-18.96,2.75-34.83,7.12-47.61,13.12c-13.89,6.51-24.94,14.55-33.16,24.11
		c-8.21,9.56-12.32,19.03-12.32,28.38c0,8.95,3.96,16.41,11.86,22.36c7.91,5.95,18.1,8.93,30.57,8.93c9.63,0,19.16-1.73,28.59-5.19
		c9.43-3.46,17.64-8.19,24.64-14.19c6.29-5.39,11.13-11.42,14.53-18.08c3.4-6.66,5.1-13.56,5.1-20.68c0-1.93-0.28-4.07-0.84-6.41
		c-0.56-2.34-1.44-4.78-2.66-7.33l1.83-0.61c1.42,2.54,2.46,5.06,3.12,7.55c0.66,2.49,0.99,5.06,0.99,7.71
		c0,8.14-2.16,16.05-6.46,23.73c-4.31,7.68-10.57,14.68-18.78,20.98c-7.61,5.9-15.9,10.45-24.87,13.66
		c-8.97,3.2-17.92,4.81-26.85,4.81c-13.18,0-23.73-3.2-31.64-9.61c-7.91-6.41-11.86-14.9-11.86-25.48c0-11.7,4.33-22.94,13-33.73
		c8.67-10.78,21.17-20.35,37.49-28.69c15.51-8.04,33.87-14.12,55.06-18.24c21.19-4.12,44.87-6.18,71.03-6.18
		c15.61,0,29.91,0.2,42.89,0.61c12.98,0.41,23.83,0.92,32.55,1.53c2.53-0.3,4.92-0.53,7.15-0.69c2.23-0.15,4.41-0.23,6.54-0.23
		c5.78,0,9.86,0.51,12.24,1.53c2.38,1.02,3.57,2.7,3.57,5.04c0,3.15-2.23,5.67-6.69,7.55c-4.46,1.88-10.55,2.82-18.25,2.82
		c-1.93,0-4.69-0.1-8.29-0.3c-3.6-0.2-6.21-0.31-7.83-0.31c-17.54,0-33.41,6.44-47.61,19.31c-14.2,12.87-30.32,35.99-48.37,69.36
		l2.13-0.15c18.05-1.22,28.44-2.9,31.18-5.04c1.32-1.12,2.59-2.85,3.8-5.19c2.13-4.07,6.29-6.1,12.47-6.1
		c2.23,0,4.08,0.05,5.55,0.15c1.47,0.1,2.91,0.26,4.34,0.46c-9.94,9.16-18.46,17.88-25.55,26.17c-7.1,8.29-13.54,16.97-19.32,26.02
		l-2.13-1.53c2.33-4.98,4.94-10.32,7.83-16.02c2.89-5.7,6.06-11.8,9.51-18.31c-4.56,0.51-9.46,0.94-14.68,1.3
		c-5.22,0.36-10.88,0.64-16.96,0.84c-20.89,37.44-41.3,63.71-61.22,78.82c-19.93,15.11-43.58,22.66-70.96,22.66
		c-14.7,0-26.67-3.53-35.9-10.61c-9.23-7.07-13.84-16-13.84-26.78c0-4.98,1.27-9,3.8-12.06c2.54-3.05,5.93-4.58,10.19-4.58
		c3.35,0,6.11,1.09,8.29,3.28c2.18,2.19,3.27,4.96,3.27,8.32c0,3.15-0.86,5.78-2.59,7.86c-1.72,2.09-3.9,3.13-6.54,3.13
		c-0.61-0.1-1.42-0.36-2.43-0.76c-0.61-0.3-1.01-0.46-1.22-0.46c1.22,9.97,5.38,17.55,12.47,22.74c7.1,5.19,16.83,7.78,29.2,7.78
		c18.15,0,35.95-7.96,53.39-23.88c17.44-15.92,35.79-41.07,55.06-75.46l-13.08-0.31l0.91-2.29h13.39
		c16.43-28.18,31.96-49.06,46.62-62.65C998.31,1396.77,1015.07,1387.59,1033.93,1382.81z"/>
	<path class="st0" d="M1003.75,1524.32c-2.59,5.34-4.51,10.45-5.76,15.34c-1.25,4.89-1.87,9.61-1.87,14.15
		c0,6.13,1.45,10.84,4.34,14.15c2.89,3.31,7.03,4.96,12.42,4.96c13.07,0,28.43-7.01,46.08-21.04
		c17.65-14.03,35.21-33.34,52.66-57.94l2.09,1.48c-17.75,25.99-36.65,46.36-56.7,61.13c-20.05,14.77-38.55,22.16-55.51,22.16
		c-7.28,0-13.07-2.22-17.36-6.67c-4.29-4.45-6.43-10.52-6.43-18.23c0-9.48,3.02-19.81,9.05-30.97
		c6.04-11.16,14.24-21.39,24.61-30.68c8.28-7.31,16.86-12.99,25.73-17.04c8.88-4.05,17.16-6.08,24.84-6.08
		c5.29,0,9.35,1.01,12.19,3.04c2.84,2.03,4.26,4.87,4.26,8.52c0,6.82-5.81,13.66-17.43,20.52
		C1049.36,1508,1030.29,1515.72,1003.75,1524.32z M1004.95,1521.65c17.86-5.34,31.97-11.73,42.34-19.19
		c10.37-7.46,15.56-14.84,15.56-22.16c0-2.57-0.7-4.52-2.09-5.85c-1.4-1.33-3.44-2-6.13-2c-5.98,0-13.94,4.74-23.86,14.23
		C1020.84,1496.16,1012.23,1507.82,1004.95,1521.65z"/>
	<path class="st0" d="M1089.76,1524.32c-2.56,5.34-4.45,10.45-5.69,15.34c-1.23,4.89-1.85,9.61-1.85,14.15
		c0,6.13,1.43,10.84,4.28,14.15c2.86,3.31,6.94,4.96,12.26,4.96c12.9,0,28.07-7.01,45.5-21.04c17.43-14.03,34.77-33.34,52.01-57.94
		l2.07,1.48c-17.53,25.99-36.2,46.36-55.99,61.13c-19.8,14.77-38.07,22.16-54.81,22.16c-7.19,0-12.9-2.22-17.14-6.67
		c-4.23-4.45-6.35-10.52-6.35-18.23c0-9.48,2.98-19.81,8.94-30.97c5.96-11.16,14.06-21.39,24.3-30.68
		c8.18-7.31,16.65-12.99,25.41-17.04c8.77-4.05,16.94-6.08,24.53-6.08c5.22,0,9.23,1.01,12.04,3.04c2.81,2.03,4.21,4.87,4.21,8.52
		c0,6.82-5.74,13.66-17.21,20.52C1134.8,1508,1115.96,1515.72,1089.76,1524.32z M1090.94,1521.65
		c17.63-5.34,31.57-11.73,41.81-19.19c10.24-7.46,15.37-14.84,15.37-22.16c0-2.57-0.69-4.52-2.07-5.85c-1.38-1.33-3.4-2-6.06-2
		c-5.91,0-13.76,4.74-23.56,14.23C1106.63,1496.16,1098.13,1507.82,1090.94,1521.65z"/>
	<path class="st0" d="M1280.12,1363.53l-116.46,180.06c-3.06,5-5.44,9.46-7.13,13.39c-1.69,3.93-2.53,7.11-2.53,9.56
		c0,2.24,0.56,3.9,1.69,4.97c1.12,1.07,2.96,1.61,5.52,1.61c7.97,0,20.05-7.44,36.24-22.34c16.19-14.89,33.28-34.73,51.26-59.51
		l1.99,1.99c-18.18,25.6-35.75,45.92-52.71,60.96c-16.96,15.04-30.39,22.56-40.3,22.56c-5.62,0-9.98-1.43-13.1-4.28
		c-3.11-2.85-4.67-6.83-4.67-11.93c0-3.26,0.79-6.88,2.37-10.86c1.59-3.98,4.67-9.54,9.27-16.68l106.04-167.97L1280.12,1363.53z"/>
	<path class="st0" d="M1473.16,1544.63c-10.01,12.09-21.03,21.21-33.06,27.35c-12.03,6.14-24.88,9.21-38.56,9.21
		c-8.54,0-17.24-1.57-26.1-4.71c-8.86-3.14-17.47-7.71-25.82-13.71c-7.25,4.97-14.16,8.65-20.73,11.04
		c-6.57,2.39-12.92,3.59-19.08,3.59c-12.49,0-22.7-3.98-30.64-11.95c-7.94-7.97-11.91-18.18-11.91-30.65
		c0-12.09,3.95-22.89,11.84-32.41c7.9-9.51,19.74-17.83,35.53-24.96c0.92-10.03,2.94-18.82,6.06-26.36
		c3.12-7.54,7.8-14.65,14.05-21.3c5.42-5.91,11.48-10.61,18.18-14.13c6.7-3.52,12.85-5.27,18.46-5.27c5.6,0,10.19,1.67,13.77,4.99
		c3.58,3.33,5.37,7.52,5.37,12.58c0,5.53-2.41,10.99-7.23,16.38c-4.82,5.39-12.19,10.8-22.1,16.24c-2.39,1.22-6.22,3.02-11.5,5.41
		c-5.28,2.39-11.32,5.09-18.11,8.08c0.28,15.09,2.82,28.82,7.64,41.2c4.82,12.37,12.05,23.72,21.69,34.03
		c8.35-8.34,16.96-17.76,25.82-28.26c8.86-10.5,13.57-16.03,14.12-16.59c6.43-6.84,12.33-11.83,17.7-14.97
		c5.37-3.14,10.72-4.71,16.05-4.71c5.51,0,10.08,1.52,13.7,4.57c3.63,3.05,5.44,6.91,5.44,11.6c0,2.16-0.6,4.45-1.79,6.89
		c-1.19,2.44-2.94,4.92-5.23,7.45c-1.75-5.06-4.29-8.93-7.64-11.6c-3.35-2.67-7.42-4.01-12.19-4.01
		c-10.47,0-26.35,11.53-47.65,34.59c-6.89,7.41-12.35,13.17-16.39,17.29c9,7.5,17.72,13.08,26.17,16.73
		c8.45,3.66,16.94,5.48,25.48,5.48c10.56,0,20.22-2.34,28.99-7.03c8.77-4.69,18.11-12.51,28.03-23.48L1473.16,1544.63z
		 M1314.64,1480.37c-10.1,6.75-17.51,13.78-22.24,21.09c-4.73,7.31-7.09,15.37-7.09,24.18c0,12.47,3.65,22.92,10.95,31.35
		c7.3,8.44,16.27,12.65,26.93,12.65c3.86,0,7.71-0.72,11.57-2.18c3.86-1.45,7.99-3.68,12.4-6.68
		c-11.11-10.03-19.31-21.09-24.58-33.18c-5.28-12.09-7.92-25.82-7.92-41.2V1480.37z M1331.58,1471.23
		c12.85-4.59,23.34-11.08,31.47-19.47c8.13-8.39,12.19-16.61,12.19-24.68c0-3.47-1.06-6.35-3.17-8.65c-2.11-2.3-4.78-3.44-7.99-3.44
		c-7.44,0-14.39,5.37-20.87,16.1C1336.75,1441.82,1332.87,1455.2,1331.58,1471.23z"/>
	<path class="st0" d="M1687.41,1363.53l1.8,2.58c-10,6.06-19.45,15.86-28.35,29.4c-8.9,13.54-17.25,30.81-25.05,51.83
		c-1.9,5.15-4.65,12.73-8.25,22.73c-17.4,48.49-34.1,80.77-50.1,96.83l0.6-0.45c59.1-36.87,98.7-65.52,118.8-85.92
		c10.7-10.71,19.22-20.31,25.58-28.79c6.35-8.49,11.47-16.87,15.37-25.16c3.7-8.08,6.57-15.25,8.62-21.52
		c2.05-6.26,3.07-11.06,3.07-14.4c0-0.1,0-0.25,0-0.46c0.2-1.01,0.3-1.87,0.3-2.58c-2.7-0.61-4.78-1.84-6.23-3.71
		c-1.45-1.87-2.17-4.32-2.17-7.35c0-3.53,1.17-6.49,3.53-8.87c2.35-2.37,5.27-3.56,8.77-3.56c4.1,0,7.5,1.74,10.2,5.23
		c2.7,3.49,4.05,7.96,4.05,13.41c0,14.95-7,32.51-21,52.66c-14,20.15-33.15,39.88-57.45,59.18c-21.5,16.97-59.35,42.58-113.55,76.83
		l-10.8,6.97l-1.8-2.58c15.5-23.54,29.6-55.21,42.3-95.02c2.6-8.18,4.55-14.14,5.85-17.88c7.1-20.51,15.92-38.31,26.47-53.42
		c10.55-15.1,22.62-27.2,36.22-36.29c-8,4.34-20.6,8.89-37.8,13.64c-17.2,4.75-29.6,8.59-37.2,11.52
		c-15.7,6.27-27.4,13.74-35.1,22.43c-7.7,8.69-11.55,18.79-11.55,30.31c0,6.16,1.6,11.11,4.8,14.85c3.2,3.74,7.45,5.61,12.75,5.61
		c9,0,16.72-3.08,23.18-9.24c6.45-6.16,9.67-13.64,9.67-22.43c0-1.31-0.08-2.75-0.22-4.32c-0.15-1.57-0.38-3.11-0.68-4.62l1.65-0.61
		c0.6,2.73,0.98,4.8,1.13,6.21c0.15,1.42,0.22,2.73,0.22,3.94c0,9.5-3.55,17.58-10.65,24.25c-7.1,6.67-15.55,10-25.35,10
		c-7.6,0-13.95-2.65-19.05-7.96c-5.1-5.3-7.65-12-7.65-20.08c0-12.32,5.73-23.34,17.17-33.04c11.45-9.7,27.83-17.38,49.13-23.03
		c2.6-0.81,7.05-1.87,13.35-3.18C1648.51,1381.71,1670.31,1373.73,1687.41,1363.53z"/>
	<path class="st0" d="M1750.32,1472.45c-3.87,5.83-9.29,13.93-16.26,24.3c-27.19,40.9-40.79,64.17-40.79,69.8
		c0,1.48,0.58,2.82,1.74,4c1.16,1.19,2.57,1.78,4.21,1.78c8.13,0,20.27-7.24,36.44-21.71c16.16-14.47,32.42-33.27,48.78-56.39
		l2.47,1.63c-19.55,25.79-37.09,45.57-52.62,59.35c-15.53,13.78-28.14,20.67-37.81,20.67c-4.45,0-8.13-1.56-11.03-4.67
		c-2.9-3.11-4.36-7.09-4.36-11.93c0-3.26,1.07-7.61,3.19-13.04c2.13-5.43,5.03-10.92,8.71-16.45l36.58-55.87L1750.32,1472.45z"/>
	<path class="st0" d="M1807.66,1502.98c1.77-2.57,3.09-5.24,3.98-8c0.88-2.77,1.33-5.73,1.33-8.89c0-4.94-1.08-8.54-3.24-10.82
		c-2.16-2.27-5.6-3.41-10.31-3.41c-4.91,0-8.94,1.8-12.08,5.41c-3.14,3.61-4.72,8.28-4.72,14c0,4.15,2.46,11.71,7.37,22.67
		c4.91,10.97,7.37,20.01,7.37,27.12c0,7.91-2.23,14.65-6.7,20.23c-4.47,5.58-10.98,9.76-19.52,12.52v0.59
		c16.21-2.57,32.69-10.62,49.44-24.16c16.75-13.54,33.57-32.31,50.47-56.31l2.06,1.48c-20.04,28.36-39.32,49.15-57.84,62.39
		c-18.52,13.24-37.45,19.86-56.81,19.86c-9.82,0-17.71-2.64-23.65-7.93c-5.94-5.28-8.92-12.13-8.92-20.53
		c0-6.22,1.67-11.36,5.01-15.41c3.34-4.05,7.57-6.08,12.67-6.08c3.44,0,6.17,0.94,8.18,2.82c2.01,1.88,3.02,4.45,3.02,7.71
		c0,2.77-0.91,5.04-2.73,6.82c-1.82,1.78-4.2,2.67-7.15,2.67c-2.26,0-4.08-0.64-5.45-1.93c-1.37-1.28-2.21-2.96-2.5-5.04
		c-1.47,1.88-2.58,3.9-3.32,6.08c-0.74,2.17-1.1,4.4-1.1,6.67c0,6.72,1.87,11.88,5.6,15.49c3.73,3.61,9.09,5.41,16.06,5.41
		c8.16,0,14.61-2.69,19.38-8.08c4.77-5.38,7.15-12.62,7.15-21.71c0-4.84-2.01-12.45-6.04-22.82c-4.03-10.37-6.04-18.33-6.04-23.86
		c0-8.6,3.12-15.56,9.36-20.9c6.24-5.34,14.42-8,24.53-8c7.37,0,13.39,1.78,18.05,5.34c4.66,3.56,7,8.05,7,13.49
		c0,4.35-1.42,8.13-4.27,11.34c-2.85,3.21-6.14,4.82-9.87,4.82c-0.98,0-1.94-0.07-2.87-0.22
		C1809.6,1503.65,1808.64,1503.38,1807.66,1502.98z"/>
	<path class="st0" d="M1951.08,1472.16l-4.73,6.67c-35.6,49.3-53.4,77.9-53.4,85.81c0,2.87,0.59,4.92,1.78,6.15
		c1.18,1.24,3.11,1.85,5.77,1.85c7.79,0,19.82-7.16,36.09-21.49c16.27-14.32,32.54-32.65,48.81-54.98l1.48,1.19
		c-17.26,24.21-34.09,43.4-50.51,57.57c-16.42,14.18-29.76,21.27-40.01,21.27c-5.23,0-9.42-1.53-12.57-4.59
		c-3.15-3.06-4.73-7.06-4.73-12c0-2.96,0.62-6.17,1.85-9.63c1.23-3.46,3.03-6.97,5.4-10.52l-0.59-0.3
		c-9.76,12.25-19.38,21.59-28.84,28.01c-9.47,6.42-18.44,9.63-26.92,9.63c-5.62,0-9.96-1.31-13.02-3.93
		c-3.06-2.62-4.59-6.35-4.59-11.19c0-2.96,0.52-6.08,1.55-9.34c1.04-3.26,2.44-6.22,4.22-8.89l46.15-69.21l22.34-2.07l-51.18,72.47
		c-2.46,3.56-4.49,7.21-6.06,10.97c-1.58,3.76-2.37,6.67-2.37,8.74c0,2.37,0.72,4.4,2.15,6.08c1.43,1.68,3.13,2.52,5.1,2.52
		c11.15,0,24.85-8.52,41.12-25.56c16.27-17.04,33.97-41.52,53.1-73.43L1951.08,1472.16z"/>
	<path class="st0" d="M2039.75,1489.41l10.72-17.65l20.7-0.91c-16.68,22.53-30.45,43.05-41.32,61.56
		c-10.87,18.51-16.3,30.12-16.3,34.85c0,2.11,0.65,3.77,1.94,4.98c1.29,1.21,3.08,1.81,5.36,1.81c7.94,0,19.43-7.14,34.47-21.42
		c15.04-14.28,32.04-34.25,51-59.9l1.79,1.66c-18.96,26.45-36.36,46.95-52.19,61.48c-15.84,14.54-28.51,21.8-38.04,21.8
		c-4.76,0-8.71-1.46-11.84-4.38c-3.13-2.92-4.69-6.59-4.69-11.01c0-2.81,0.7-5.91,2.08-9.28c1.39-3.37,3.48-7.06,6.25-11.09
		l-0.89-0.91c-8.54,10.86-17.69,19.49-27.47,25.87c-9.78,6.39-18.44,9.58-25.98,9.58c-5.96,0-10.7-2.09-14.22-6.26
		c-3.52-4.17-5.29-9.78-5.29-16.82c0-7.34,2.63-16.14,7.89-26.4c5.26-10.26,12.21-19.92,20.85-28.97
		c8.44-8.85,17.6-15.89,27.47-21.12c9.88-5.23,18.79-7.85,26.73-7.85c5.76,0,10.45,1.74,14.07,5.21
		C2036.45,1477.72,2038.76,1482.77,2039.75,1489.41z M2030.67,1486.85c0-4.93-1.09-8.77-3.28-11.54c-2.18-2.77-5.16-4.15-8.93-4.15
		c-5.36,0-12.41,3.35-21.14,10.03c-8.73,6.69-16.83,15.26-24.27,25.72c-5.86,8.35-10.47,16.95-13.85,25.8
		c-3.37,8.85-5.06,16.55-5.06,23.08c0,4.53,0.99,8.02,2.98,10.49c1.99,2.47,4.76,3.7,8.34,3.7c4.07,0,9.11-1.91,15.11-5.73
		c6.01-3.82,12.14-9.1,18.39-15.84c10.23-11.26,18.07-22.2,23.53-32.81C2027.94,1504.98,2030.67,1495.4,2030.67,1486.85z"/>
	<path class="st0" d="M2189.09,1363.53l-116.98,180.06c-3.08,5-5.46,9.46-7.16,13.39c-1.69,3.93-2.54,7.11-2.54,9.56
		c0,2.24,0.56,3.9,1.69,4.97c1.13,1.07,2.98,1.61,5.54,1.61c8,0,20.14-7.44,36.4-22.34c16.27-14.89,33.43-34.73,51.49-59.51l2,1.99
		c-18.27,25.6-35.91,45.92-52.95,60.96c-17.03,15.04-30.53,22.56-40.48,22.56c-5.64,0-10.03-1.43-13.16-4.28
		c-3.13-2.85-4.69-6.83-4.69-11.93c0-3.26,0.8-6.88,2.39-10.86c1.59-3.98,4.69-9.54,9.31-16.68l106.51-167.97L2189.09,1363.53z"/>
	<path class="st0" d="M2173.06,1472.45c-3.87,5.83-9.29,13.93-16.26,24.3c-27.19,40.9-40.79,64.17-40.79,69.8
		c0,1.48,0.58,2.82,1.74,4c1.16,1.19,2.57,1.78,4.21,1.78c8.13,0,20.27-7.24,36.44-21.71c16.16-14.47,32.42-33.27,48.78-56.39
		l2.47,1.63c-19.55,25.79-37.09,45.57-52.62,59.35c-15.53,13.78-28.14,20.67-37.81,20.67c-4.45,0-8.13-1.56-11.03-4.67
		c-2.9-3.11-4.36-7.09-4.36-11.93c0-3.26,1.07-7.61,3.19-13.04c2.13-5.43,5.03-10.92,8.71-16.45l36.58-55.87L2173.06,1472.45z"/>
	<path class="st0" d="M2176.35,1560.48v0.3c3.48-1.97,6.92-3.48,10.31-4.52c3.39-1.04,6.58-1.56,9.58-1.56
		c5.81,0,12.82,2.13,21.05,6.37c8.23,4.25,14.37,6.37,18.44,6.37c7.84,0,17.64-5.88,29.4-17.64c11.76-11.76,26.44-30.38,44.06-55.87
		l2.18,1.93c-18.2,26.68-34.94,47.1-50.23,61.28c-15.29,14.18-28.31,21.27-39.05,21.27c-4.65,0-12.05-2.64-22.21-7.93
		c-10.16-5.28-17.61-7.93-22.36-7.93c-3,0-6.75,2.42-11.25,7.26c-4.5,4.84-7.28,7.26-8.35,7.26c-1.06,0-1.84-0.17-2.32-0.52
		c-0.48-0.35-0.73-0.96-0.73-1.85c0-2.17,3.99-5.88,11.98-11.11c7.98-5.24,14.4-9.93,19.23-14.08l1.02-0.89
		c23.61-20.94,51.92-43.13,84.92-66.54l-0.58-0.3c-5.23,3.46-9.78,5.95-13.65,7.48c-3.87,1.53-7.55,2.3-11.03,2.3
		c-4.35,0-10.16-1.68-17.42-5.04c-7.26-3.36-12.53-5.04-15.82-5.04c-3.39,0-6.36,0.94-8.93,2.82c-2.56,1.88-6.41,6.62-11.54,14.23
		l-1.89-1.48c5.32-9.09,10.86-15.83,16.62-20.23c5.76-4.39,12.03-6.59,18.8-6.59c5.03,0,11.61,1.93,19.74,5.78s14.13,5.78,18,5.78
		c5.13,0,9.97-2.47,14.52-7.41c4.55-4.94,7.35-7.41,8.42-7.41c0.48,0,0.89,0.2,1.23,0.59c0.34,0.4,0.51,0.89,0.51,1.48
		c0,1.78-10.77,11.46-32.3,29.05C2235.17,1515.68,2208.38,1536.47,2176.35,1560.48z"/>
	<path class="st0" d="M2288.07,1524.32c-2.52,5.34-4.38,10.45-5.59,15.34c-1.21,4.89-1.81,9.61-1.81,14.15
		c0,6.13,1.4,10.84,4.21,14.15c2.81,3.31,6.82,4.96,12.05,4.96c12.68,0,27.58-7.01,44.71-21.04c17.13-14.03,34.16-33.34,51.1-57.94
		l2.03,1.48c-17.23,25.99-35.56,46.36-55.02,61.13c-19.45,14.77-37.4,22.16-53.85,22.16c-7.06,0-12.68-2.22-16.84-6.67
		c-4.16-4.45-6.24-10.52-6.24-18.23c0-9.48,2.93-19.81,8.78-30.97c5.86-11.16,13.82-21.39,23.88-30.68
		c8.03-7.31,16.36-12.99,24.97-17.04c8.61-4.05,16.65-6.08,24.1-6.08c5.13,0,9.07,1.01,11.83,3.04c2.76,2.03,4.14,4.87,4.14,8.52
		c0,6.82-5.64,13.66-16.91,20.52C2332.32,1508,2313.81,1515.72,2288.07,1524.32z M2289.23,1521.65
		c17.32-5.34,31.02-11.73,41.08-19.19c10.06-7.46,15.1-14.84,15.1-22.16c0-2.57-0.68-4.52-2.03-5.85c-1.36-1.33-3.34-2-5.95-2
		c-5.81,0-13.52,4.74-23.15,14.23C2304.64,1496.16,2296.29,1507.82,2289.23,1521.65z"/>
</g>
</svg>
